<svg xmlns="http://www.w3.org/2000/svg" width="800" height="600" viewBox="0 0 800 600">
  <rect width="800" height="600" fill="#f0f0f0"/>
  <g transform="translate(250, 150)">
    <!-- Book -->
    <rect x="0" y="0" width="150" height="200" rx="5" fill="#2c3e50"/>
    <rect x="10" y="10" width="130" height="180" rx="5" fill="#ecf0f1"/>
    <line x1="30" y1="50" x2="120" y2="50" stroke="#7f8c8d" stroke-width="5"/>
    <line x1="30" y1="80" x2="120" y2="80" stroke="#7f8c8d" stroke-width="5"/>
    <line x1="30" y1="110" x2="120" y2="110" stroke="#7f8c8d" stroke-width="5"/>
    <line x1="30" y1="140" x2="100" y2="140" stroke="#7f8c8d" stroke-width="5"/>
    
    <!-- Stationery -->
    <rect x="180" y="20" width="15" height="160" fill="#3498db"/>
    <path d="M180,20 L195,20 L195,0 L180,0 Z" fill="#e74c3c"/>
    <rect x="220" y="40" width="80" height="10" fill="#95a5a6"/>
    <rect x="220" y="60" width="80" height="10" fill="#95a5a6"/>
    <rect x="220" y="80" width="80" height="10" fill="#95a5a6"/>
    <rect x="220" y="100" width="60" height="10" fill="#95a5a6"/>
    <rect x="220" y="120" width="40" height="10" fill="#95a5a6"/>
  </g>
  <text x="400" y="480" font-family="Arial, sans-serif" font-size="32" text-anchor="middle" fill="#333333">Books & Stationery</text>
</svg>