<svg xmlns="http://www.w3.org/2000/svg" width="800" height="600" viewBox="0 0 800 600">
  <rect width="800" height="600" fill="#f0f0f0"/>
  <g transform="translate(250, 150)">
    <path d="M150,50 L300,150 L300,300 L0,300 L0,150 Z" fill="#8e44ad"/>
    <rect x="120" y="200" width="60" height="100" fill="#ecf0f1"/>
    <rect x="50" y="180" width="40" height="40" fill="#3498db"/>
    <rect x="210" y="180" width="40" height="40" fill="#3498db"/>
    <path d="M150,50 L0,150 L0,170 L150,70 L300,170 L300,150 Z" fill="#9b59b6"/>
    <!-- Garden elements -->
    <path d="M350,250 C380,220 380,180 350,150 C320,180 320,220 350,250 Z" fill="#27ae60"/>
    <path d="M380,270 C410,240 410,200 380,170 C350,200 350,240 380,270 Z" fill="#2ecc71"/>
    <rect x="350" y="250" width="10" height="50" fill="#795548"/>
    <rect x="380" y="270" width="10" height="30" fill="#795548"/>
  </g>
  <text x="400" y="480" font-family="Arial, sans-serif" font-size="32" text-anchor="middle" fill="#333333">Home & Garden</text>
</svg>