<svg xmlns="http://www.w3.org/2000/svg" width="800" height="600" viewBox="0 0 800 600">
  <rect width="800" height="600" fill="#f0f0f0"/>
  <g transform="translate(250, 150)">
    <!-- Dog silhouette -->
    <ellipse cx="150" cy="120" rx="100" ry="60" fill="#f39c12"/>
    <circle cx="220" cy="80" r="30" fill="#f39c12"/>
    <ellipse cx="240" cy="85" rx="10" ry="5" fill="#2c3e50"/>
    <path d="M220,60 L230,40 L210,40 Z" fill="#f39c12"/>
    <path d="M220,60 L240,40 L250,60 Z" fill="#f39c12"/>
    
    <!-- Paw prints -->
    <circle cx="80" cy="200" r="10" fill="#e67e22"/>
    <circle cx="70" cy="215" r="5" fill="#e67e22"/>
    <circle cx="90" cy="215" r="5" fill="#e67e22"/>
    <circle cx="65" cy="230" r="5" fill="#e67e22"/>
    <circle cx="95" cy="230" r="5" fill="#e67e22"/>
    
    <circle cx="120" cy="220" r="10" fill="#e67e22"/>
    <circle cx="110" cy="235" r="5" fill="#e67e22"/>
    <circle cx="130" cy="235" r="5" fill="#e67e22"/>
    <circle cx="105" cy="250" r="5" fill="#e67e22"/>
    <circle cx="135" cy="250" r="5" fill="#e67e22"/>
    
    <!-- Pet bowl -->
    <ellipse cx="180" cy="220" rx="40" ry="15" fill="#3498db"/>
    <ellipse cx="180" cy="220" rx="30" ry="10" fill="#ecf0f1"/>
  </g>
  <text x="400" y="480" font-family="Arial, sans-serif" font-size="32" text-anchor="middle" fill="#333333">Pet Supplies</text>
</svg>