<svg xmlns="http://www.w3.org/2000/svg" width="800" height="600" viewBox="0 0 800 600">
  <rect width="800" height="600" fill="#f0f0f0"/>
  <g transform="translate(250, 150)">
    <!-- Coffee bag -->
    <rect x="50" y="50" width="200" height="250" rx="10" fill="#795548"/>
    <rect x="70" y="70" width="160" height="210" rx="5" fill="#8d6e63"/>
    
    <!-- Label -->
    <rect x="90" y="100" width="120" height="80" rx="5" fill="#ecf0f1"/>
    <text x="150" y="140" font-family="Arial, sans-serif" font-size="16" text-anchor="middle" fill="#34495e">PREMIUM</text>
    <text x="150" y="160" font-family="Arial, sans-serif" font-size="16" text-anchor="middle" fill="#34495e">COFFEE</text>
    
    <!-- Coffee beans scattered -->
    <ellipse cx="50" cy="30" rx="15" ry="10" fill="#5d4037" transform="rotate(30)"/>
    <ellipse cx="90" cy="20" rx="15" ry="10" fill="#5d4037" transform="rotate(-20)"/>
    <ellipse cx="130" cy="40" rx="15" ry="10" fill="#5d4037" transform="rotate(45)"/>
    <ellipse cx="180" cy="30" rx="15" ry="10" fill="#5d4037" transform="rotate(-40)"/>
    <ellipse cx="220" cy="40" rx="15" ry="10" fill="#5d4037" transform="rotate(15)"/>
    
    <ellipse cx="270" cy="100" rx="15" ry="10" fill="#5d4037" transform="rotate(60)"/>
    <ellipse cx="280" cy="150" rx="15" ry="10" fill="#5d4037" transform="rotate(30)"/>
    <ellipse cx="270" cy="200" rx="15" ry="10" fill="#5d4037" transform="rotate(-30)"/>
    
    <ellipse cx="30" cy="100" rx="15" ry="10" fill="#5d4037" transform="rotate(-60)"/>
    <ellipse cx="20" cy="150" rx="15" ry="10" fill="#5d4037" transform="rotate(-30)"/>
    <ellipse cx="30" cy="200" rx="15" ry="10" fill="#5d4037" transform="rotate(30)"/>
  </g>
  <text x="400" y="480" font-family="Arial, sans-serif" font-size="32" text-anchor="middle" fill="#333333">Coffee Beans</text>
</svg>