<svg xmlns="http://www.w3.org/2000/svg" width="800" height="600" viewBox="0 0 800 600">
  <rect width="800" height="600" fill="#f0f0f0"/>
  <g transform="translate(250, 150)">
    <!-- Handbag body -->
    <path d="M50,100 C50,70 100,50 150,50 C200,50 250,70 250,100 L250,250 C250,270 200,300 150,300 C100,300 50,270 50,250 Z" fill="#c0392b"/>
    
    <!-- Handbag opening -->
    <path d="M70,100 C70,80 100,70 150,70 C200,70 230,80 230,100 L230,120 C230,140 200,150 150,150 C100,150 70,140 70,120 Z" fill="#e74c3c"/>
    
    <!-- Handbag handles -->
    <path d="M80,100 C80,60 100,30 120,30 C130,30 130,50 120,50 C110,50 100,70 100,100" fill="none" stroke="#c0392b" stroke-width="10"/>
    <path d="M220,100 C220,60 200,30 180,30 C170,30 170,50 180,50 C190,50 200,70 200,100" fill="none" stroke="#c0392b" stroke-width="10"/>
    
    <!-- Decorative elements -->
    <circle cx="150" cy="200" r="20" fill="#e67e22"/>
    <rect x="140" y="190" width="20" height="20" fill="#d35400"/>
  </g>
  <text x="400" y="480" font-family="Arial, sans-serif" font-size="32" text-anchor="middle" fill="#333333">Handbag</text>
</svg>