<svg xmlns="http://www.w3.org/2000/svg" width="800" height="600" viewBox="0 0 800 600">
  <rect width="800" height="600" fill="#f0f0f0"/>
  <g transform="translate(200, 200)">
    <!-- Sneaker body -->
    <path d="M50,100 C70,80 150,70 200,70 C250,70 350,90 380,110 C400,125 400,150 380,170 C350,200 250,200 200,200 C150,200 70,200 50,170 C30,150 30,120 50,100 Z" fill="#3498db"/>
    
    <!-- Sneaker details -->
    <path d="M70,100 C90,85 150,80 200,80 C250,80 330,95 360,110 C380,120 380,140 360,155 C330,180 250,180 200,180 C150,180 90,180 70,155 C50,140 50,115 70,100 Z" fill="#2980b9"/>
    
    <!-- Laces -->
    <line x1="120" y1="100" x2="120" y2="160" stroke="#ecf0f1" stroke-width="5"/>
    <line x1="150" y1="95" x2="150" y2="165" stroke="#ecf0f1" stroke-width="5"/>
    <line x1="180" y1="90" x2="180" y2="170" stroke="#ecf0f1" stroke-width="5"/>
    <line x1="210" y1="90" x2="210" y2="170" stroke="#ecf0f1" stroke-width="5"/>
    
    <!-- Sole -->
    <path d="M50,170 C70,200 150,200 200,200 C250,200 350,200 380,170 L380,190 C350,220 250,220 200,220 C150,220 70,220 50,190 Z" fill="#34495e"/>
    
    <!-- Logo -->
    <circle cx="300" cy="130" r="15" fill="#e74c3c"/>
  </g>
  <text x="400" y="480" font-family="Arial, sans-serif" font-size="32" text-anchor="middle" fill="#333333">Sneakers</text>
</svg>