<svg xmlns="http://www.w3.org/2000/svg" width="800" height="600" viewBox="0 0 800 600">
  <rect width="800" height="600" fill="#f0f0f0"/>
  <g transform="translate(250, 100)">
    <!-- Dress top -->
    <path d="M100,50 L200,50 L220,100 L80,100 Z" fill="#e84393"/>
    
    <!-- Dress body -->
    <path d="M80,100 L220,100 L250,350 L50,350 Z" fill="#fd79a8"/>
    
    <!-- Dress details -->
    <path d="M120,100 L180,100 L190,150 L110,150 Z" fill="#ffeaa7"/>
    <path d="M130,200 C130,180 170,180 170,200" stroke="#ffeaa7" stroke-width="3" fill="none"/>
    <path d="M130,230 C130,210 170,210 170,230" stroke="#ffeaa7" stroke-width="3" fill="none"/>
    <path d="M130,260 C130,240 170,240 170,260" stroke="#ffeaa7" stroke-width="3" fill="none"/>
    
    <!-- Dress straps -->
    <path d="M100,50 L80,20 L100,0 L120,20 Z" fill="#e84393"/>
    <path d="M200,50 L220,20 L200,0 L180,20 Z" fill="#e84393"/>
  </g>
  <text x="400" y="480" font-family="Arial, sans-serif" font-size="32" text-anchor="middle" fill="#333333">Women's Dress</text>
</svg>